# xmcd
#
# Track frame offsets:
#	150
#	12427
#	25387
#	39187
#	53455
#	74242
#	86247
#	104102
#	145707
#	162350
#	179110
#	193540
#	215802
#	235052
#	250505
#	264722
#	283250
#	302130
#	315017
#
# Disc length: 4410
#
# Revision: 1
# Processed by: cddbd v1.5.1PL0 Copyright (c) Steve Scherf et al.
# Submitted via: ExactAudioCopy v0.95a3
# Normalized: r0:TDELIM( - )
#
DISCID=19113813
DTITLE=Various Artist - The complete collection - disc 3
DYEAR=2004
DGENRE=
TTITLE0=Sweet Reaction - Tell Alain
TTITLE1=Sweet Reaction - Come back my dream
TTITLE2=Sally Lane - For you
TTITLE3=Sweet Reaction - Daddu
TTITLE4=Pussycat - Mississippi (German version)
TTITLE5=Pussycat - Heute heute heute
TTITLE6=Pussycat - Pasadena (German version)
TTITLE7=Pussycat - Doin' la bamba (12 inch version)
TTITLE8=Tony Wille and Marco Bakker - We'll put the world together again
TTITLE9=Tony Wille - Hungry nights
TTITLE10=Tony Wille - Every beat of my heart
TTITLE11=Toni Wille - Out of reach
TTITLE12=Toni Wille - Sweet music to my soul
TTITLE13=Toni Wille - Incredible you
TTITLE14=Toni Wille - Good year for the roses
TTITLE15=Toni Wille and Major Dundee Band - It turned out be be you
TTITLE16=Toni Wille - Love in a heatwave
TTITLE17=Toni Wille and Benny Neyman - Oh, how I miss you tonight
TTITLE18=Toni Wille and Danny Vera - Heart half empty
EXTD=
EXTT0=
EXTT1=
EXTT2=
EXTT3=
EXTT4=
EXTT5=
EXTT6=
EXTT7=
EXTT8=
EXTT9=
EXTT10=
EXTT11=
EXTT12=
EXTT13=
EXTT14=
EXTT15=
EXTT16=
EXTT17=
EXTT18=
PLAYORDER=
